<svg style="background-color:white" xmlns="http://www.w3.org/2000/svg" xmlns:xlink="http://www.w3.org/1999/xlink" xmlns:s="https://github.com/nturley/netlistsvg" width="239" height="184">
  <style>svg {
    stroke:#000;
    fill:none;
  }
  text {
    fill:#000;
    stroke:none;
    font-size:10px;
    font-weight: bold;
    font-family: "Courier New", monospace;
  }
  .nodelabel {
    text-anchor: middle;
  }
  .inputPortLabel {
    text-anchor: end;
  }
  .splitjoinBody {
    fill:#000;
  }</style>
  <g s:type="generic" transform="translate(102,66.5)" s:width="30" s:height="40" id="cell_$procdff$4">
    <text x="15" y="-4" class="nodelabel cell_$procdff$4" s:attribute="ref">$adff</text>
    <rect width="30" height="60" s:generic="body" class="cell_$procdff$4"/>
    <g transform="translate(0,10)" s:x="0" s:y="10" s:pid="in0" id="port_$procdff$4~ARST">
      <text x="-3" y="-4" class="inputPortLabel cell_$procdff$4">ARST</text>
    </g>
    <g transform="translate(0,30)" s:x="0" s:y="10" s:pid="in0" id="port_$procdff$4~CLK">
      <text x="-3" y="-4" class="inputPortLabel cell_$procdff$4">CLK</text>
    </g>
    <g transform="translate(0,50)" s:x="0" s:y="10" s:pid="in0" id="port_$procdff$4~D">
      <text x="-3" y="-4" class="inputPortLabel cell_$procdff$4">D</text>
    </g>
    <g transform="translate(30,10)" s:x="30" s:y="10" s:pid="out0" id="port_$procdff$4~Q">
      <text x="5" y="-4" style="fill:#000; stroke:none" class="cell_$procdff$4">Q</text>
    </g>
  </g>
  <g s:type="inputExt" transform="translate(12,87)" s:width="30" s:height="20" id="cell_clk_i">
    <text x="15" y="-4" class="nodelabel cell_clk_i" s:attribute="ref">clk_i</text>
    <s:alias val="$_inputExt_"/>
    <path d="M0,0 L0,20 L15,20 L30,10 L15,0 Z" class="cell_clk_i"/>
    <g s:x="28" s:y="10" s:pid="Y"/>
  </g>
  <g s:type="inputExt" transform="translate(12,22)" s:width="30" s:height="20" id="cell_rst_i">
    <text x="15" y="-4" class="nodelabel cell_rst_i" s:attribute="ref">rst_i</text>
    <s:alias val="$_inputExt_"/>
    <path d="M0,0 L0,20 L15,20 L30,10 L15,0 Z" class="cell_rst_i"/>
    <g s:x="28" s:y="10" s:pid="Y"/>
  </g>
  <g s:type="inputExt" transform="translate(12,152)" s:width="30" s:height="20" id="cell_d_i">
    <text x="15" y="-4" class="nodelabel cell_d_i" s:attribute="ref">d_i</text>
    <s:alias val="$_inputExt_"/>
    <path d="M0,0 L0,20 L15,20 L30,10 L15,0 Z" class="cell_d_i"/>
    <g s:x="28" s:y="10" s:pid="Y"/>
  </g>
  <g s:type="outputExt" transform="translate(197,67)" s:width="30" s:height="20" id="cell_q_o">
    <text x="15" y="-4" class="nodelabel cell_q_o" s:attribute="ref">q_o</text>
    <s:alias val="$_outputExt_"/>
    <path d="M30,0 L30,20 L15,20 L0,10 L15,0 Z" class="cell_q_o"/>
    <g s:x="0" s:y="10" s:pid="A"/>
  </g>
  <line x1="40" x2="52" y1="32" y2="32" class="net_3"/>
  <line x1="52" x2="52" y1="32" y2="77" class="net_3"/>
  <line x1="52" x2="102" y1="77" y2="77" class="net_3"/>
  <line x1="40" x2="102" y1="97" y2="97" class="net_2"/>
  <line x1="40" x2="52" y1="162" y2="162" class="net_4"/>
  <line x1="52" x2="52" y1="162" y2="117" class="net_4"/>
  <line x1="52" x2="102" y1="117" y2="117" class="net_4"/>
  <line x1="133" x2="197" y1="77" y2="77" class="net_5"/>
</svg>
